<svg version="1.1" id="svg2" xmlns="http://www.w3.org/2000/svg" xmlns:xlink="http://www.w3.org/1999/xlink" x="0px" y="0px" viewBox="0 0 94.8 69.6" style="enable-background:new 0 0 94.8 69.6;" xml:space="preserve">
 <style type="text/css">
  .st0{fill-rule:evenodd;clip-rule:evenodd;fill:#161413;}
 </style>
 <defs>
  
  
 </defs>
 
 
 <g id="g2452" transform="matrix(2.4763374,0,0,2.4763374,-150.24767,-82.943284)">
  <g id="g28" transform="matrix(1.8302345,0,0,1.8302345,63.773317,33.494341)">
   <path id="path30" class="st0" d="M8.8,14.4c-1.1,0.6-2.4,1-3.8,1c-2.8,0-5.3-1.5-6.6-3.8c0,0,0,0,0,0c0,0,0,0,0,0l1.1-0.6l1.1-0.6&#xA;&#x9;&#x9;&#x9;c0,0,0,0,0,0c0.9,1.5,2.6,2.5,4.5,2.5c0.6,0,1.2-0.1,1.7-0.3c-1.2-1.3-1.9-3.1-1.9-5c0-1.9,0.7-3.6,1.8-5C6.2,2.5,5.6,2.4,5,2.4&#xA;&#x9;&#x9;&#x9;c-1.9,0-3.6,1-4.5,2.6c0,0,0,0,0,0l-2.2-1.1c0,0,0,0,0-0.1C-0.3,1.6,2.2,0,5,0c1.4,0,2.7,0.4,3.8,1c1.1-0.6,2.4-1,3.8-1&#xA;&#x9;&#x9;&#x9;c2.8,0,5.3,1.6,6.7,3.9c0,0,0,0,0,0.1l-2.2,1.1c0,0,0,0,0,0c-0.9-1.6-2.7-2.6-4.5-2.6c-0.6,0-1.2,0.1-1.7,0.3&#xA;&#x9;&#x9;&#x9;c1.1,1.3,1.8,3.1,1.8,5c0,1.9-0.7,3.6-1.9,5c0.5,0.2,1.1,0.3,1.7,0.3c1.9,0,3.5-1,4.5-2.5c0,0,0,0,0,0l1.1,0.6l1.1,0.6&#xA;&#x9;&#x9;&#x9;c0,0,0,0,0,0c0,0,0,0,0,0c-1.3,2.3-3.8,3.8-6.6,3.8C11.1,15.4,9.8,15,8.8,14.4z M8.8,11.3c-0.9-0.9-1.5-2.2-1.5-3.6&#xA;&#x9;&#x9;&#x9;c0-1.4,0.5-2.7,1.5-3.6c0.9,0.9,1.5,2.2,1.5,3.6C10.2,9.1,9.7,10.4,8.8,11.3z">
   </path>
  </g>
 </g>
</svg>